<?xml version="1.0" standalone="no"?>
<!DOCTYPE svg PUBLIC "-//W3C//DTD SVG 20010904//EN"
 "http://www.w3.org/TR/2001/REC-SVG-20010904/DTD/svg10.dtd">
<svg version="1.0" xmlns="http://www.w3.org/2000/svg"
 width="702.000000pt" height="547.000000pt" viewBox="0 0 702.000000 547.000000"
 preserveAspectRatio="xMidYMid meet">
<metadata>
Created by potrace 1.16, written by Peter Selinger 2001-2019
</metadata>
<g transform="translate(0.000000,547.000000) scale(0.100000,-0.100000)"
fill="#000000" stroke="none">
<path d="M3825 4299 c-91 -91 -296 -273 -360 -318 -35 -26 -44 -37 -32 -39 9
-2 17 -8 17 -13 0 -5 6 -9 14 -9 22 0 25 -22 8 -54 -19 -39 -11 -150 16 -197
10 -19 17 -40 15 -46 -3 -7 0 -13 5 -13 9 0 25 -37 23 -52 -1 -5 2 -7 6 -6 19
4 63 -16 63 -28 0 -17 -17 -19 -22 -2 -3 7 -7 8 -11 2 -3 -5 -2 -15 2 -22 5
-8 28 1 74 30 l68 41 72 -51 c40 -29 137 -95 217 -149 80 -53 152 -101 160
-107 12 -8 13 -8 3 4 -18 20 -16 38 7 62 10 12 17 25 14 30 -9 15 5 9 168 -73
89 -45 208 -96 264 -114 154 -51 347 -86 507 -92 75 -3 137 -7 137 -9 0 -2
-15 -29 -33 -61 -19 -32 -67 -116 -107 -188 -40 -71 -103 -182 -140 -245 -70
-122 -85 -148 -310 -550 -79 -140 -155 -273 -171 -296 -48 -70 -130 -135 -300
-238 -158 -96 -389 -245 -389 -251 0 -4 90 21 274 74 148 43 160 46 152 32 -3
-4 -1 -23 4 -42 10 -33 16 -386 8 -422 -3 -10 -10 -22 -17 -27 -8 -4 -11 -12
-7 -18 5 -9 -155 -138 -222 -177 -27 -17 -62 -63 -62 -82 1 -4 6 1 13 12 7 11
20 21 29 21 10 1 16 -1 13 -5 -2 -4 11 -14 30 -21 19 -8 35 -19 35 -26 0 -10
25 -21 70 -30 8 -2 16 -8 18 -13 2 -6 12 -11 22 -11 21 0 21 26 -1 42 -11 7
-9 8 6 3 11 -4 27 -8 37 -9 9 -1 23 -8 32 -15 18 -16 4 -23 274 148 627 397
964 622 985 659 16 29 18 90 20 960 2 903 1 931 -17 951 -11 12 -96 73 -190
137 -156 105 -265 181 -551 380 -55 39 -198 138 -317 221 -119 83 -252 177
-295 210 -115 87 -240 173 -250 172 -4 0 -39 -32 -78 -70z"/>
<path d="M3220 3323 c-25 -8 -126 -45 -225 -80 -170 -61 -463 -143 -567 -158
-53 -8 -52 -6 -38 -55 56 -192 72 -583 32 -775 -51 -244 -101 -376 -227 -600
-53 -94 -119 -216 -148 -272 -28 -57 -55 -103 -60 -103 -22 0 -56 51 -62 94
-7 46 -25 74 -25 39 0 -15 -2 -16 -11 -3 -9 12 -10 12 -5 -3 3 -10 6 -29 6
-42 0 -32 78 -91 369 -283 130 -85 346 -228 481 -317 135 -88 259 -170 277
-180 l32 -19 23 30 c65 84 558 574 578 574 6 0 10 4 10 9 0 14 -387 274 -470
316 -41 21 -165 68 -275 106 -110 37 -283 96 -385 131 -102 36 -191 67 -199
69 -9 3 4 30 46 90 63 90 119 183 171 284 44 86 233 484 300 633 60 131 119
227 168 274 16 14 61 48 99 75 141 97 215 155 209 164 -8 13 -32 11 -37 -3 -3
-8 -6 -6 -6 5 -1 20 -2 20 -61 0z"/>
<path d="M4133 3045 c-11 -8 -33 -44 -48 -80 -16 -36 -33 -65 -40 -65 -6 0
-32 14 -59 30 -103 65 -169 93 -237 98 -85 6 -196 -22 -315 -79 -175 -84 -320
-268 -359 -454 -39 -187 5 -365 122 -495 l43 -48 -43 -58 c-86 -119 -90 -133
-60 -184 18 -32 80 -70 112 -70 43 0 80 30 126 105 26 41 51 75 56 75 5 0 33
-13 62 -29 186 -104 355 -99 582 17 170 88 291 246 331 432 36 170 -22 349
-153 476 l-45 44 27 48 c15 26 45 69 67 95 l40 48 -27 35 c-47 61 -137 91
-182 59z m-426 -283 c10 -6 4 -22 -22 -63 -52 -81 -48 -96 34 -159 l44 -34 31
35 c17 19 54 63 81 97 28 34 53 62 57 62 3 0 31 -20 61 -45 126 -102 172 -190
164 -310 -10 -152 -105 -267 -272 -330 -73 -28 -85 -30 -85 -15 0 10 53 119
116 238 18 35 24 56 18 62 -6 6 -54 13 -107 17 l-97 6 -81 -169 c-45 -93 -83
-171 -85 -173 -8 -9 -51 19 -106 68 -100 91 -150 224 -129 349 30 175 142 302
316 358 49 16 47 15 62 6z"/>
<path d="M4295 294 c-43 -4 -254 -26 -380 -41 -22 -2 -75 -20 -119 -40 -67
-30 -86 -34 -125 -29 l-46 6 25 -17 c22 -15 62 -19 305 -26 376 -10 611 -3
1110 33 127 9 245 35 252 56 4 13 -77 41 -142 49 -58 7 -805 15 -880 9z"/>
</g>
</svg>
